<?xml version="1.0" standalone="no"?><!DOCTYPE svg PUBLIC "-//W3C//DTD SVG 1.1//EN" "http://www.w3.org/Graphics/SVG/1.1/DTD/svg11.dtd"><svg t="1555604388987" class="icon" style="" viewBox="0 0 1024 1024" version="1.1" xmlns="http://www.w3.org/2000/svg" p-id="2014" xmlns:xlink="http://www.w3.org/1999/xlink" width="48" height="48"><defs><style type="text/css"></style></defs><path d="M270.336 970.752C79.872 874.496-10.24 708.608 4.096 471.04 14.336 292.864 90.112 161.792 233.472 71.68 325.632 16.384 350.208 10.24 512 10.24s186.368 6.144 278.528 61.44c61.44 38.912 122.88 100.352 161.792 161.792 55.296 92.16 61.44 116.736 61.44 278.528s-6.144 186.368-61.44 278.528c-94.208 151.552-223.232 221.184-417.792 229.376-135.168 6.144-169.984 0-264.192-49.152z" fill="#F7C65D" p-id="2015"></path><path d="M327.68 741.376c0-8.192 12.288-28.672 26.624-43.008 14.336-16.384 16.384-30.72 4.096-34.816-98.304-38.912-122.88-65.536-129.024-131.072-10.24-104.448 14.336-202.752 55.296-223.232 20.48-12.288 129.024-26.624 241.664-34.816 198.656-12.288 204.8-12.288 239.616 34.816 40.96 59.392 45.056 260.096 4.096 315.392-22.528 30.72-55.296 38.912-147.456 40.96-88.064 0-143.36 12.288-198.656 47.104-86.016 49.152-96.256 53.248-96.256 28.672z m81.92-290.816c0-22.528-14.336-40.96-30.72-40.96s-30.72 18.432-30.72 40.96 14.336 40.96 30.72 40.96 30.72-18.432 30.72-40.96z m143.36 12.288c0-40.96-38.912-63.488-65.536-36.864-12.288 12.288-14.336 30.72-8.192 43.008 20.48 32.768 73.728 26.624 73.728-6.144z m135.168 6.144c20.48-34.816-26.624-73.728-55.296-45.056-24.576 24.576-8.192 67.584 22.528 67.584 10.24 0 24.576-10.24 32.768-22.528z" fill="#FFFEFC" p-id="2016"></path></svg>