<?xml version="1.0" standalone="no"?><!DOCTYPE svg PUBLIC "-//W3C//DTD SVG 1.1//EN" "http://www.w3.org/Graphics/SVG/1.1/DTD/svg11.dtd"><svg t="1555754792949" class="icon" style="" viewBox="0 0 1040 1024" version="1.1" xmlns="http://www.w3.org/2000/svg" p-id="3788" xmlns:xlink="http://www.w3.org/1999/xlink" width="32.5" height="32"><defs><style type="text/css"></style></defs><path d="M1037.215999 814.231003C1036.268842 815.651739 1033.506301 818.098561 1028.902064 821.597781 1024.271518 825.07069 1021.403737 826.912385 1020.27241 827.096554 1019.325253 827.491203 1016.694261 827.333344 1012.353124 826.675596 1008.011987 826.017848 1002.513214 826.017848 995.830494 826.675596 989.121464 827.333344 984.09627 827.570133 980.70229 827.385963L954.418679 823.991984C952.708534 823.991984 944.420909 823.281616 929.555804 821.86088 914.664389 820.466454 904.956029 818.914169 900.430722 817.204024 895.905416 815.520189 893.142874 815.046611 892.090477 815.783288 891.06439 816.546276 890.538192 820.308595 890.538192 827.096554L890.248783 879.111267 890.827601 890.687632 893.932172 934.783059 895.642317 949.490305C896.194825 957.567451 894.300511 973.406023 889.985684 996.953402 889.222696 1000.531551 888.617568 1003.399332 888.143989 1005.583056 887.670411 1007.740469 886.197055 1011.318618 883.750233 1016.317503 881.30341 1021.316388 878.803967 1023.84214 876.278215 1023.94738 873.726153 1024.05262 871.752909 1018.474917 870.332173 1007.266891 868.911437 996.058864 868.12214 988.192198 867.93797 983.666892L865.096499 937.88763 866.517235 837.567903 863.702073 673.920197C863.307424 652.635471 863.070635 641.085416 862.991705 639.296341 862.886465 637.507267 862.939085 636.42856 863.123255 636.033911L863.965172 612.881181 863.123255 591.385976C862.754916 589.123323 861.676209 581.967024 859.887135 569.917081 858.09806 557.867137 858.09806 549.895231 859.887135 546.027673 861.676209 542.160114 864.254581 540.23949 867.648561 540.23949 868.0169 540.42366 869.911214 540.897238 873.305194 541.660226 876.699174 542.396904 881.776988 543.817639 888.564948 545.896123L902.693375 550.684529C905.140198 551.263347 910.902071 551.263347 919.926373 550.684529 928.608647 550.31619 934.26528 549.658442 936.896272 548.711285L958.102068 537.398019C961.469738 536.082523 964.863718 535.424775 968.257697 535.424775L982.964943 538.529345C1000.48735 542.133804 1010.906079 545.133135 1014.194819 547.579958 1017.483559 550.026781 1018.746435 554.078508 1018.009757 559.735141 1017.615108 561.813625 1016.746881 563.944729 1015.326145 566.102142 1013.90541 568.259556 1009.117004 572.232354 1000.908309 577.967916 992.725924 583.703479 981.307418 595.542943 966.705412 613.433689 952.103406 631.350745 946.025815 643.769028 948.472637 650.741157 949.603964 654.503475 952.813774 658.081624 958.102068 661.475604L975.624475 670.236808C984.09627 674.946284 993.409982 683.944276 1003.591921 697.230786 1013.77386 710.517296 1019.877762 722.146281 1021.956245 732.144051L1030.717449 778.212722C1032.032945 785.55319 1033.79571 791.99912 1035.953123 797.576823 1038.110537 803.128217 1039.110314 806.943155 1038.926144 809.021639 1038.741975 811.100123 1038.163156 812.836577 1037.215999 814.231003ZM984.385679 720.830785C979.860372 712.54316 975.756025 706.570808 972.072636 702.887419 968.415557 699.20403 962.364275 695.362782 953.99772 691.311054 945.604856 687.259326 939.474644 685.180843 935.633396 685.075603 931.765838 684.996673 929.450565 684.944053 928.687577 684.944053L915.979885 685.496562C912.770075 685.707041 910.612661 685.233463 909.481335 684.102136 908.165839 683.154979 907.350231 681.892103 907.087132 680.287197 906.797723 678.682292 906.508314 676.472259 906.218905 673.630788 905.955805 670.815626 905.850566 668.184634 905.955805 665.711501 906.034735 663.264679 908.823587 656.766128 914.29605 646.21585L935.475536 604.961895 943.105413 590.254649C941.974087 587.071149 938.685347 585.071595 933.212883 584.334917 930.95023 584.150748 925.767176 585.650413 917.66372 588.860223 909.560265 592.043724 904.956029 594.411617 903.824702 595.911282 902.693375 597.410948 901.24633 602.462452 899.457255 611.039486 897.641871 619.616521 896.510544 625.720422 896.063275 629.403811 895.589697 633.0872 894.51099 644.584635 892.800845 663.896117 891.11701 683.207599 890.248783 695.204922 890.248783 699.914398L889.696275 734.117295C888.196609 761.426993 888.196609 778.107482 889.696275 784.132454L890.248783 786.684516C896.300065 787.815843 901.27264 788.368351 905.245438 788.368351 907.508091 788.578831 913.848782 788.420971 924.32013 787.947392 934.765169 787.500124 941.974087 786.789756 945.946885 785.842599L969.678433 778.76523C981.360038 775.765899 989.779212 771.135353 994.962267 764.926212 1000.145321 758.717071 996.619792 744.009825 984.385679 720.830785ZM988.884675 434.868258C988.516336 441.472048 987.963828 448.759896 987.20084 456.758112 986.437853 464.782638 985.227596 471.333808 983.517451 476.411623 981.833616 481.489437 979.202624 484.515078 975.624475 485.462236 972.020016 486.409393 968.073528 482.910173 963.732391 474.990887L919.084456 395.298138C917.400621 392.667146 917.479551 389.930914 919.373865 387.115752 921.241869 384.274281 926.056585 381.11709 933.791701 377.644181 941.500508 374.144961 946.788802 371.38242 949.603964 369.303936 952.445435 367.225452 954.787018 364.64708 956.681332 361.5162 958.549337 358.411629 959.733283 355.307058 960.206862 352.202488 960.68044 349.097917 960.548891 340.099924 959.785903 325.208509L954.708088 229.966597 952.997944 219.784657 948.762046 155.90417 944.526149 105.889011 941.421578 59.530931 937.44878 31.563486 936.317454 11.778425C935.764946 8.016107 935.764946 5.385115 936.317454 3.859139 936.896272 2.359474 937.922359 1.122907 939.448334 0.17575 940.948-0.745097 944.605079-0.087349 950.472191 2.175304 951.024699 2.543643 957.41801 4.280098 969.678433 7.384669 981.912546 10.515549 988.568956 13.43595 989.595043 16.145872 990.64744 18.882104 989.937072 23.644199 987.490249 30.432159 985.043427 37.220118 983.806861 42.692582 983.806861 46.823239L981.544207 108.704173 981.833616 179.951438 984.09627 240.990453 985.227596 249.462248 987.20084 282.823227 989.752903 304.581531C990.48958 311.921999 991.068399 325.392679 991.436737 344.993569 991.805076 364.59446 991.805076 378.907057 991.436737 387.95767L988.884675 434.868258ZM898.746887 126.22658 900.720131 200.289006 901.851458 207.366375 901.562049 216.969496 901.562049 224.888782C901.00954 229.01944 898.641648 234.018324 894.51099 239.859127 890.354023 245.699929 885.828716 248.436161 880.935071 248.041512 875.857256 247.857343 872.963165 246.831256 872.305417 244.936941 871.647669 243.068937 871.22671 241.174623 871.042541 239.280309 870.858371 237.412304 870.226933 234.860242 869.200846 231.650432 868.17476 228.466931 867.174983 223.178637 866.227825 215.838169L860.018684 171.190234 859.176767 148.274293 857.203523 127.357906C856.440535 120.201608 856.019576 112.545421 855.914337 104.336726 855.835407 96.128031 855.651237 90.339848 855.361828 86.945868 855.072419 83.551889 855.493378 80.920897 856.624704 79.052892 857.756031 77.158578 860.676432 76.39559 865.385908 76.790239 866.701404 76.974408 873.121025 80.210529 884.61846 86.52491 896.089585 92.839291 902.325036 97.417217 903.272194 100.232378 903.824702 102.495031 903.166954 106.704619 901.27264 112.80852 899.404635 118.938732 898.562718 123.411418 898.746887 126.22658ZM828.788808 710.806705C824.158262 713.332458 821.63251 714.674264 821.158931 714.753193 820.685353 714.858433 819.211997 714.937363 816.765175 715.042603 814.318352 715.147842 804.425822 716.358099 787.113894 718.725991 769.775657 721.067574 757.620473 723.014508 750.648344 724.514174 743.676215 726.013839 726.443217 730.354976 698.92304 737.511275L663.588817 746.824987 619.49339 759.558988 594.630515 767.478274C586.711229 767.846613 580.370538 764.031675 575.555823 756.033459 570.741107 748.008933 567.978566 742.931118 567.215578 740.747395 566.45259 738.589981 566.45259 736.485188 567.215578 734.406704 569.109892 729.697228 608.758943 718.489202 686.215349 700.756316 683.742216 697.572815 681.874212 695.204922 680.558716 693.705257L677.454145 690.863786 667.824714 674.762114 663.036309 670.236808C661.510333 668.552973 660.484246 663.554088 659.931738 655.266463 659.35292 646.978838 662.378561 639.7173 668.956041 633.508159 670.482016 632.008493 672.350021 632.192663 674.612674 634.060667 676.506988 638.033465 678.427612 640.664457 680.400856 641.979953 682.40041 643.295449 689.13575 640.664457 700.606875 634.060667 704.948012 631.613844 712.39372 628.561894 722.943998 624.878505 733.494276 621.195116 741.834521 619.221872 747.964732 618.958773 754.068634 618.669363 757.620473 618.327334 758.56763 617.958996L763.934854 615.985752C768.065512 614.670256 773.169636 614.380846 779.194608 615.143834 781.8256 615.696342 787.534853 617.169698 796.296056 619.511281 805.05726 621.879174 810.713893 623.852418 813.239645 625.457323 815.791708 627.062228 818.47532 629.272261 821.290481 632.087423 824.131952 634.902584 825.736858 637.559886 826.105197 640.006709 826.473535 642.453532 822.290258 645.900131 813.529054 650.320198 804.767851 654.740265 800.005755 657.634356 799.242768 658.949852L778.61579 684.102136C780.694274 684.286305 782.299179 684.286305 783.430505 684.102136L810.266624 682.102582C820.448564 683.233909 827.552242 686.07538 831.60397 690.600686 835.655698 695.125993 837.681562 698.783072 837.681562 701.624543 837.497392 703.492547 837.129053 704.860663 836.550235 705.702581 835.997727 706.570808 833.393045 708.254643 828.788808 710.806705ZM753.752915 630.403588C744.333963 630.587757 738.308992 631.534915 735.65169 633.21875 733.020697 634.902584 729.337309 639.7173 724.654143 647.636586L713.051468 665.711501C708.92081 672.68363 705.73731 679.892549 703.579896 687.338256 701.422483 694.783964 700.238536 698.493662 700.054367 698.493662 722.838758 693.810497 735.888479 690.258657 739.203529 687.917074 742.492269 685.549182 745.59684 680.287197 748.517241 672.078502 751.437642 663.896117 754.542213 656.10838 757.857263 648.767913 761.146003 641.427445 762.382569 636.50749 761.514341 634.060667 760.672424 631.613844 758.094052 630.403588 753.752915 630.403588ZM732.836528 540.791998C731.152693 536.84551 728.311222 531.057328 724.364734 523.427451 720.391936 515.797574 718.576551 509.851532 718.83965 505.615635 719.129059 501.379737 720.391936 498.538266 722.654589 497.14384 724.917242 495.723105 728.96897 495.775724 734.809772 497.27539 748.385691 501.432357 757.804643 505.484085 763.066627 509.430573 768.354921 513.377061 772.275099 518.902145 774.800851 525.953203 777.352914 533.030572 778.905199 536.84551 779.484017 537.398019L812.266178 546.159222C817.528162 548.632355 820.790593 552.473603 822.000849 557.761897 823.237415 563.023881 823.842543 566.154762 823.842543 567.075609 823.658374 570.864238 821.71144 573.916189 818.054361 576.257771 814.370972 578.625664 803.504975 579.625441 785.403749 579.230792L728.600631 590.833467C720.681345 592.333133 715.892939 593.35922 714.182794 593.938038L700.606875 599.594671 690.161837 602.409833 675.454591 611.749854C674.902083 611.934024 674.323265 611.934024 673.770756 611.749854 667.166966 611.355206 660.352697 606.5668 653.275328 597.332018 646.224269 588.097236 643.146009 581.493446 644.093166 577.546958 645.040323 573.021651 651.249464 569.575052 662.7469 567.233469 674.244335 564.865576 684.084245 562.602923 692.29294 560.445509 700.475326 558.288096 710.604645 556.288542 722.654589 554.499467 734.730842 552.710393 739.571868 550.36881 737.230285 547.448408 734.862392 544.528007 733.415346 542.317974 732.836528 540.791998ZM804.346892 337.784651C793.033626 343.730693 783.719914 348.09814 776.353137 350.939612L745.833629 361.674059C731.152693 366.936043 708.473542 376.828573 677.875104 391.35165 647.250356 405.848416 628.359833 415.398917 621.203535 420.029463 614.047237 424.633699 609.048352 426.291224 606.23319 424.975728 604.338876 424.42322 602.365632 422.607835 600.287148 419.608504L586.711229 396.140055C581.449245 388.0366 579.081352 382.669376 579.66017 380.038384 580.212679 377.407392 581.580795 375.434148 583.764518 374.092342 585.921931 372.776846 590.394618 370.987771 597.182577 368.725118L646.645228 352.912856C680.927055 341.967929 699.343999 334.91687 701.896061 331.70706 704.421814 328.497249 705.52683 323.603604 705.132182 316.999814L703.158938 292.978856C679.611559 299.398477 664.430735 302.134709 657.669085 301.187552 653.143779 300.608733 648.197514 299.056448 642.83029 296.530696 637.463066 293.978633 634.384805 291.426571 633.648127 288.900819 632.88514 286.348756 634.016466 283.007397 637.015797 278.850429 639.857269 274.719772 643.146009 271.79937 646.908327 270.089226 650.696956 268.405391 658.168973 265.537609 669.377 261.485882 680.585026 257.434154 691.003754 254.171724 700.606875 251.724901 700.817355 246.068268 701.317243 237.464924 702.185471 225.862249 703.027388 214.285884 701.475103 207.918883 697.502305 206.787557 693.555817 205.65623 688.188593 206.787557 681.400633 210.181536 677.822484 212.075851 672.113231 215.890789 664.299185 221.626352 656.485138 227.388224 651.065295 229.598258 648.039654 228.256452 646.17165 227.519774 643.014459 223.415426 638.594392 215.969719 634.148016 208.524011 629.780569 202.20963 625.439432 197.026576 621.098295 191.869832 618.362064 187.844414 617.257047 185.029252 616.12572 182.187781 616.38882 178.530702 618.098964 174.005396 619.230291 170.795585 623.939767 166.270279 632.227392 160.429477 640.515017 154.588674 646.355819 148.668942 649.749799 142.64397L672.060611 103.07385 685.084022 75.922012C667.351136 73.475189 655.774771 70.765267 650.302307 67.739626 644.856154 64.713985 641.777893 61.846204 641.120145 59.109972 640.462397 56.400051 640.593946 52.769282 641.541104 48.243975 642.304091 43.902838 643.435418 40.745648 644.935083 38.772404 646.434749 36.79916 653.617357 34.299717 666.430288 31.274076 679.24322 28.274745 690.635415 26.012092 700.606875 24.486117L741.308322 18.829484C777.116124 13.935839 798.50609 13.935839 805.478219 18.829484 808.47755 21.092137 811.73998 25.775303 815.212889 32.826362 818.712109 39.90373 818.948898 45.507743 815.923257 49.638401 814.055253 52.111534 808.214451 54.084778 798.40085 55.584443L776.090037 59.82034C757.436304 62.267163 746.964955 63.924688 744.702302 64.766605 742.439649 65.608523 740.045446 67.029258 737.493384 69.002503 734.967632 70.975747 731.152693 74.790685 726.048569 80.447318L708.236752 99.101052C708.052583 99.285221 703.579896 104.468275 694.818693 114.650215 686.057489 124.832154 680.874435 133.356568 679.26953 140.223458 677.664625 147.116657 677.901414 151.878752 679.979898 154.509744 682.058381 157.140736 691.661502 156.377749 708.815571 152.247091L736.519917 145.748541C747.070195 143.117549 752.20063 140.854896 751.91122 138.960581 751.621811 137.066267 750.174766 134.566825 747.543774 131.462254 744.886472 128.357683 742.729058 124.963704 741.045223 121.306625 739.335078 117.623236 738.493161 113.992467 738.493161 110.414318L738.493161 110.124908C738.308992 109.940739 738.256372 109.282991 738.361611 108.151664 738.440541 107.020338 740.361165 105.704842 744.149794 104.205176 747.912113 102.679201 754.963171 104.389346 765.32928 109.282991L792.481118 119.46493C799.453247 122.464261 804.425822 125.805621 807.451463 129.48901 810.450794 133.172399 813.581674 142.065152 816.765175 156.193579 819.974985 170.322007 821.211551 179.740958 820.448564 184.450434 819.501406 189.15991 817.475543 193.185328 814.370972 196.474068 811.266401 199.762808 808.214451 201.525573 805.18881 201.709742 798.795499 202.26225 787.113894 191.527803 770.143995 169.480089 751.674431 177.215206 741.492492 182.187781 739.624488 184.450434 737.730173 186.713087 736.414677 190.685885 735.65169 196.342518L736.519917 219.784657 736.519917 246.068268C763.645445 242.674288 778.43162 241.095693 780.878443 241.279863 792.191709 242.411189 797.927272 247.015425 798.137751 255.118881 798.32192 263.222336 796.901185 268.878969 793.875544 272.06247 791.428721 274.719772 786.771865 276.745635 779.904976 278.140061 773.011777 279.560797 758.56763 281.77083 736.519917 284.796471L735.65169 300.898143C734.915012 312.763917 736.098958 319.183537 739.203529 320.130695 742.308099 321.077852 748.85927 320.393794 758.83073 318.131141L814.791931 306.002267C824.7897 302.976626 830.156924 302.450428 830.919912 304.423672 831.65659 306.423226 830.919912 309.659346 828.657259 314.184652 823.737304 323.998253 815.660158 331.838609 804.346892 337.784651ZM419.406444 969.827874C418.275117 968.328208 412.144906 960.356302 401.04212 945.938466 389.913023 931.520629 381.756948 920.286293 376.600203 912.182838 371.390839 904.079382 368.259958 899.080497 367.128632 897.186183L353.000205 880.242594C349.974564 876.848614 346.212245 871.954969 341.686939 865.535348 337.161632 859.142038 335.504107 853.853744 336.740674 849.723086 337.95093 845.566119 340.739782 843.671804 345.080918 844.066453 346.948923 844.250623 351.421609 845.934457 358.498978 849.144268 365.576347 852.354078 370.96988 855.563888 374.758509 858.747389L399.621384 878.26935C412.250146 889.556306 422.405775 902.474477 430.140892 916.971243 437.876008 931.494319 443.006443 943.439023 445.558505 952.857975 448.084258 962.276926 448.505216 969.722634 446.821381 975.195097 441.743567 990.82319 432.587714 989.034116 419.406444 969.827874ZM425.063077 715.595111C423.352932 730.012947 422.511015 741.563002 422.511015 750.218966 422.326845 754.375934 422.800424 766.610047 423.93175 786.973925 425.063077 807.311494 424.957837 824.097223 423.642341 837.278494 422.511015 846.881615 420.011572 856.300566 416.144014 865.535348 412.302766 874.77013 404.699198 870.428994 393.412243 852.538248 389.623614 846.697445 387.808229 839.120188 387.887159 829.780166 387.992399 820.466454 387.282031 805.33825 385.782366 784.421863L382.651485 740.905254 379.283815 710.648846C378.152489 698.783072 375.889835 690.206038 372.495856 684.944053 369.101876 679.655759 362.129747 675.814511 351.579469 673.341378 341.029191 670.894556 332.083818 669.763229 324.71704 669.973709 317.560741 670.342047 307.615592 672.367911 294.9079 676.02499 282.200208 679.708379 270.597533 686.02276 260.152495 694.968133 249.681146 703.913506 244.366542 711.990652 244.182373 719.14695L242.472228 780.475375C242.288059 781.027883 242.577468 785.079611 243.340456 792.630558L244.182373 812.968127 250.680923 857.352963C250.286275 858.30012 249.628527 860.273364 248.707679 863.272695 247.760522 866.298336 246.629196 870.586853 245.3137 876.138246 243.998204 881.68964 242.393298 884.610041 240.498984 884.89945 238.63098 885.188859 236.263087 883.241925 233.447925 879.111267 230.053946 874.77013 228.159631 867.719072 227.791292 857.905471L226.659966 841.224982 226.081148 750.218966C225.712809 742.115511 225.13399 733.091208 224.397313 723.093438 223.634325 713.121978 223.344916 706.149849 223.555395 702.177051L224.686722 682.102582C224.476242 677.603586 224.765652 674.577945 225.528639 673.078279 226.844135 670.236808 229.001549 668.447733 232.02719 667.711055L245.02429 668.842382C247.471113 668.447733 251.049262 664.501245 255.758738 656.950298L272.149819 631.245505 276.385716 619.93224C279.963865 612.012954 281.72663 606.224771 281.62139 602.567692 281.51615 598.884303 279.884935 596.095452 276.675125 594.227447 275.912137 594.043278 272.570777 594.227447 266.651045 594.779956 260.705003 595.358774 255.337779 594.543166 250.549374 592.385753 245.734658 590.228339 241.314592 587.071149 237.262864 582.914181 233.211136 578.757214 231.448371 574.521317 232.02719 570.20649 232.395529 565.286535 235.18438 561.445286 240.367434 558.603815 245.550489 555.788653 250.391514 554.078508 254.916821 553.526L339.134876 545.896123C347.054162 545.317305 362.603326 544.817416 385.782366 544.343838 408.961406 543.870259 421.905887 545.317305 424.642118 548.711285 427.35204 552.105264 428.930635 555.394004 429.298974 558.603815 429.667313 561.813625 428.693846 565.760113 426.325953 570.469589 423.98437 575.179065 421.537548 578.862454 418.985485 581.493446 416.433423 584.150748 408.750926 585.729343 395.937995 586.308161L356.946693 588.281405C341.686939 589.228562 331.45238 592.675162 326.269325 598.594894 321.086271 604.540936 316.534655 610.223879 312.561857 615.696342 308.615368 621.168806 306.352715 624.457546 305.800207 625.588873L300.432983 639.7173 293.908123 651.030566C300.880252 648.952082 306.457955 647.636586 310.588613 647.057768 314.74558 646.505259 321.901878 646.847288 332.083818 648.057545 342.239447 649.294111 353.315924 651.162115 365.286937 653.714178 377.257951 656.26624 384.835208 657.713286 388.045019 658.081624 391.228519 658.476273 395.859065 658.897232 401.884037 659.370811 407.909009 659.844389 414.407559 660.502137 421.379688 661.344055 428.351817 662.185972 432.508785 663.975047 433.824281 666.711278 435.139777 669.44751 434.376789 674.867354 431.561627 682.970809 428.930635 690.311277 426.746912 701.203584 425.063077 715.595111ZM292.513697 265.011411C289.672226 271.220552 283.647254 275.19335 274.412472 276.877185L254.364312 278.850429C253.417155 279.034599 245.340009 280.560574 230.185495 283.375735 215.030981 286.217207 207.348484 287.611633 207.164315 287.611633 203.007347 290.058455 197.271785 293.926014 189.905007 299.214308 182.564539 304.476292 177.013146 305.897027 173.250827 303.450205 167.594194 300.240395 163.068888 295.872948 159.674908 290.295245 156.280928 284.743851 153.649936 279.324008 151.755622 274.062024L142.994418 251.724901 125.472011 220.915984C119.999548 211.128694 116.894977 202.683209 116.158299 195.63215 115.395312 188.554782 115.86889 184.082095 117.552725 182.187781 119.26287 180.319777 121.893862 179.556789 125.472011 179.951438L138.758521 183.897926C139.521509 183.897926 146.151609 181.687892 158.675131 177.241516 171.198653 172.821449 185.300771 169.585329 200.928864 167.506845L250.680923 162.402721C254.443242 161.666043 256.890065 161.192464 258.021391 161.008295L276.385716 162.139621 291.934879 160.718886C292.119048 160.718886 292.408457 160.718886 292.776796 160.718886 302.011578 160.903055 309.378356 162.50796 314.82451 165.533601 320.296973 168.532932 323.217374 172.032152 323.585713 175.97864 323.980362 179.951438 320.770552 187.291905 313.982592 198.026353 312.088278 200.841515 309.878245 205.5773 307.352492 212.15478 304.80043 218.758571 301.222281 225.914869 296.591735 233.649986 291.987499 241.358792 290.435213 247.120665 291.934879 250.882984L293.355615 254.276963C294.486941 257.670943 294.197532 261.249092 292.513697 265.011411ZM263.125516 208.208292C263.125516 204.051325 262.915036 201.315093 262.546698 199.999597 261.415371 196.816097 258.179251 193.422117 252.785717 189.817658 247.418493 186.265819 240.972563 184.266265 233.447925 183.897926 223.081817 183.529587 212.426299 185.081872 201.507682 188.554782 190.562755 192.054001 182.038341 195.89525 175.934439 200.157457 169.804227 204.393354 164.805343 208.813421 160.937784 213.417657 157.070226 218.048203 155.439011 223.362807 155.991519 229.387778 157.122846 245.778859 173.145587 253.803385 204.033434 253.408736 222.13466 253.408736 233.895194 251.645971 239.367658 248.041512 244.840121 244.463363 250.102105 238.85935 255.20623 231.229473 260.284044 223.599596 262.915036 216.127578 263.125516 208.760801L263.125516 208.208292ZM411.197749 146.301049 410.066422 155.90417 403.015364 195.211192 385.782366 285.638389C381.809568 317.105054 378.599757 336.337606 376.152935 343.283425L369.101876 361.674059C357.97278 396.534704 350.684932 414.609619 347.185712 415.925115 343.712803 417.240611 341.39753 417.81943 340.266203 417.63526 338.371889 417.63526 336.135545 416.635483 333.478243 414.662239 330.847251 412.688995 329.400206 409.584425 329.110797 405.322217 328.821387 401.08632 329.163416 395.219208 330.084264 387.668261 330.847251 380.511962 331.557619 375.381528 332.215367 372.276957 332.873115 369.146077 332.925735 366.515085 332.346917 364.357671 331.794409 362.200258 328.216259 359.963914 321.612469 357.701261 312.009348 354.70193 288.067321 356.017426 249.839006 361.674059L226.949375 364.199812 198.955619 368.17261C173.329757 372.513746 154.333994 374.960569 142.020951 375.513077 129.655289 376.091896 122.841019 377.696801 121.525523 380.327793L118.420953 398.981527C116.342469 402.743845 114.158745 404.34875 111.896092 403.769932 111.159414 403.769932 108.844141 402.270267 104.976583 399.244626 101.109025 396.245295 97.872905 392.746075 95.241913 388.799587 92.584611 384.853099 90.427197 379.801594 88.743362 373.671383 87.033217 367.567481 83.560308 353.097025 78.272014 330.286324L63.854177 271.79937C62.354512 265.37975 61.039016 260.117766 59.907689 255.960798 58.776363 251.830141 55.382383 241.279863 49.72575 224.309964 44.069117 207.366375 39.64905 194.448204 36.43924 185.581761 33.22943 176.741627 31.545595 171.321784 31.361425 169.34854 31.177256 167.348986 31.072016 160.666266 31.072016 149.27407 31.072016 137.881875 32.150723 131.514874 34.334446 130.199378 36.49186 128.883882 38.991302 128.305064 41.806464 128.489233 44.647935 129.068051 49.909919 132.593581 57.645036 139.092131 65.380153 145.590681 69.800219 155.062253 70.931546 167.506845 71.115715 170.322007 71.010476 174.242185 70.642137 179.24107 70.273798 184.213645 70.168558 187.397145 70.352728 188.712641L72.062872 198.868271 73.483608 211.023454C73.851947 213.680756 75.772571 220.205616 79.271791 230.676965 82.7447 241.122003 85.901891 253.040397 88.743362 266.432147L91.558524 280.560574 100.319727 316.157897C101.266884 322.577517 102.477141 327.339613 104.003116 330.444183 105.502782 333.548754 108.317943 336.284986 112.474911 338.626569 116.605568 340.994462 130.549826 340.284094 154.307684 336.521775 156.570337 336.337606 162.35852 335.942957 171.672232 335.390448 181.012254 334.81163 200.665764 331.996469 230.606454 326.892344L304.66888 319.551876 314.561411 317.578632 328.400429 315.315979C333.478243 314.184652 339.292736 311.63259 345.791286 307.686102 352.289837 303.739614 355.341787 270.273395 354.973449 207.366375L354.973449 198.026353 354.131531 182.766599 354.684039 161.297704C354.684039 143.564817 350.921721 131.435944 343.370774 124.832154 338.661298 121.069835 332.978355 117.912645 326.269325 115.360583 319.586605 112.80852 308.904778 110.282768 294.197532 107.730706 279.516596 105.178643 270.939562 103.731598 268.49274 103.336949 259.257957 102.600271 248.076241 103.626358 235.000211 106.467829 221.89787 109.282991 205.085831 115.255343 184.537783 124.411195 164.016045 133.540738 148.545812 138.592242 138.179703 139.51309 131.970562 140.276077 122.235891 139.855119 108.949381 138.250214 95.662871 136.645308 88.059304 134.303725 86.1913 131.172845 84.296986 128.068274 83.270899 126.09503 83.086729 125.253113 82.90256 124.411195 83.455068 123.043079 84.770564 121.148765 86.664878 118.149434 91.216495 114.097706 98.478033 108.993582 105.739571 103.915767 111.659303 100.416548 116.289849 98.548543 120.894085 96.654229 138.337562 92.602501 168.567661 86.39336 198.82407 80.184219 216.583266 76.790239 221.84525 76.211421L266.230086 72.528032 273.570554 71.133606C276.780365 70.765267 279.963865 70.844197 283.173675 71.423015 286.383486 71.975524 299.380586 75.474743 322.191288 81.868054 344.975679 88.287674 362.682255 91.444865 375.311017 91.339625 387.939779 91.234385 397.49028 92.286782 404.015141 94.444196 410.513691 96.601609 416.065084 98.680093 420.66932 100.653337 425.299866 102.652891 427.32573 106.17842 426.746912 111.256235 426.378573 112.96638 423.98437 116.860248 419.537994 122.99046 415.117927 129.120671 412.329075 136.882098 411.197749 146.301049ZM93.242359 578.678284 152.597539 572.442833C166.936446 571.127337 180.643915 570.2328 193.719945 569.759221 206.822286 569.311952 215.030981 571.101027 218.319721 575.152755 221.608461 579.204483 223.397536 582.335363 223.686945 584.598016 223.976354 586.860669 223.160746 590.438819 221.292742 595.358774 217.714593 604.593556 214.557402 610.276499 211.821171 612.433912 209.084939 614.617636 205.612029 615.880512 201.349822 616.248851 197.113925 616.6435 188.8263 617.248628 176.486947 618.090545 164.147595 618.958773 155.991519 621.168806 152.045031 624.746955 148.072233 628.325104 145.257072 633.876498 143.573237 641.427445 141.863092 648.952082 140.889625 657.634356 140.600216 667.421646 140.310806 677.208937 139.521509 693.047509 138.179703 714.911053 136.864207 736.748287 135.73288 767.741373 134.812033 807.890312 135.364541 847.460433 133.864876 874.243932 130.286727 888.29343 126.708578 902.316617 124.919503 909.630775 124.919503 910.183284L121.788622 930.547162 114.158745 959.382835C111.711923 974.063771 107.107687 979.430995 100.319727 975.484506 99.004231 974.905688 97.767665 973.590192 96.636338 971.511708 95.505012 969.459535 93.926416 965.013158 91.847933 958.251508L87.322626 945.517507 78.850832 917.813161C75.272683 909.157197 73.378369 902.948055 73.194199 899.159427 73.01003 895.397108 73.851947 892.660876 75.719951 890.977042 76.482939 890.214054 80.113708 889.898335 86.612259 889.977265 93.110809 890.082504 98.425413 888.346049 102.58238 884.7679 108.239013 879.847945 111.343584 867.245493 111.896092 846.881615L113.027419 810.152965 114.158745 735.538031C112.106572 710.464676 111.106795 693.336918 111.212034 684.102136 111.290964 674.867354 111.343584 669.315961 111.343584 667.421646L108.791522 643.11128C108.423183 638.217634 107.581265 634.902584 106.265769 633.21875 104.923963 631.534915 102.58238 630.482518 99.188401 630.114179 97.294086 630.114179 94.110586 630.482518 89.58528 631.245505L72.352282 634.060667C72.141802 634.244836 67.826975 635.665572 59.328871 638.296564 50.857076 640.953866 44.358526 642.164123 39.83322 641.979953 35.123744 641.979953 31.835004 641.506375 29.94069 640.559217 28.072685 639.63837 22.968561 634.639485 14.680936 625.588873 6.393311 616.53826 1.999554 611.355206 1.552285 610.039709 1.078707 608.724213 0.684058 606.69835 0.420959 603.962118 0.13155 601.225886 5.446154 597.805596 16.391081 593.648629 24.284057 590.833467 38.807133 587.676277 59.907689 584.177058 81.008245 580.704148 92.137342 578.862454 93.242359 578.678284ZM185.53756 972.932444C188.642131 968.222968 193.246367 961.724418 199.376578 953.436793 205.50679 945.149168 214.267993 935.967006 225.660189 925.890306 237.052384 915.813607 244.129753 909.051957 246.865985 905.684287 249.602217 902.290307 253.890734 895.449728 259.731536 885.188859 265.572338 874.90168 269.045248 868.455749 270.176575 865.824757 271.307901 863.193765 273.886273 854.93245 277.964311 841.093432 281.989729 827.254414 284.305002 818.151181 284.88382 813.810044L289.672226 771.135353C290.435213 763.216067 290.487833 755.323091 289.830085 747.403805 289.172337 739.484519 289.198647 734.222535 289.961635 731.565233 290.908792 727.802914 292.776796 725.461331 295.618268 724.514174 297.880921 723.935356 301.538 724.330005 306.642124 725.645501 311.719939 726.960997 318.08694 728.171253 325.716817 729.30258 333.346694 730.433906 337.582591 732.222981 338.424509 734.669803 339.292736 737.142936 339.424285 739.879168 338.845467 742.878499L334.346471 759.558988 331.21559 775.37125C330.268433 779.344048 328.216259 787.263335 325.006449 799.129109L313.982592 839.541147C310.404443 851.406921 306.694744 861.64148 302.827186 870.192204 298.959628 878.769238 294.013363 887.714611 287.988391 897.054633 281.963419 906.368345 274.807121 915.892536 266.493186 925.600897 258.205561 935.309258 253.311915 943.254854 251.81225 949.490305 250.286275 955.699446 249.023398 959.698554 247.997311 961.487629 246.944915 963.276703 238.815149 968.643927 223.555395 977.5893 208.295641 986.534673 197.166545 991.717727 190.194416 993.138463 183.222287 994.559199 179.117939 994.453959 177.907683 992.849054 176.671117 991.270459 177.197315 988.113268 179.459968 983.403793 180.407125 981.141139 182.432989 977.64192 185.53756 972.932444ZM643.540658 781.738251C643.908996 778.265342 644.408885 775.792209 645.092943 774.397783 645.750691 772.977048 647.013567 772.24037 648.907881 772.13513 650.775886 772.029891 652.380791 772.450849 653.696287 773.398006 653.696287 773.582176 654.643444 774.818742 656.537758 777.081395L660.194837 781.027883C661.720813 783.106367 662.852139 785.36902 663.588817 787.815843L663.299408 805.33825 668.956041 831.332452C670.087367 839.067568 671.508103 843.645494 673.191938 845.03992 674.902083 846.460656 677.059496 847.171024 679.716798 847.171024 680.821815 847.355193 688.556932 845.934457 702.869528 842.935127 717.208435 839.909486 726.048569 837.646832 729.442548 836.147167L744.702302 829.648617C749.227609 828.51729 752.490039 827.333344 754.463283 826.123087 756.436527 824.886521 757.857263 821.96612 758.69918 817.361884 759.541097 812.731338 760.014676 806.232787 760.119916 797.839923 760.198845 789.473368 755.620919 783.869355 746.412447 781.027883 743.386806 780.291206 736.467297 782.395999 725.62761 787.394884 714.787923 792.393769 707.131736 794.787972 702.606429 794.603802 693.739986 794.603802 688.188593 792.630558 685.92594 788.65776L678.848571 779.607148C681.295394 776.607817 683.373877 774.476713 685.084022 773.266457 686.767857 772.029891 690.451246 770.530225 696.107879 768.74115 701.738202 766.952076 709.368079 764.163224 718.99751 760.400906 728.600631 756.638587 736.125268 755.217851 741.597732 756.165008L757.988812 759.848397C758.56763 759.848397 760.567184 759.453748 764.066404 758.717071 767.565623 757.954083 775.14288 757.243715 786.824485 756.585967 798.50609 755.928219 806.609545 757.848843 811.134852 762.37415 812.818687 764.268464 814.186802 766.425877 815.212889 768.8727 816.265286 771.319523 816.923034 773.266457 817.212443 774.660883 817.475543 776.081618 815.265509 779.712387 810.556033 785.55319 808.47755 788.000012 804.189033 795.36679 797.690482 807.600903 791.191932 819.861326 788.50832 827.280724 789.639647 829.938026 789.823816 830.674704 791.191932 833.332006 793.743994 837.831002 796.296056 842.356308 797.269524 845.01361 796.717015 845.750288L789.087138 861.851959C784.167183 863.930443 780.510104 865.245939 778.063282 865.824757L750.648344 867.798001C741.045223 869.113498 731.415792 872.454857 721.812671 877.822081 712.20955 883.189305 704.658603 886.793764 699.21245 888.582839 693.739986 890.371913 690.819585 891.871579 690.451246 893.081835 690.056597 894.318401 690.477556 896.870464 691.714122 900.738022 692.950688 904.57927 693.634746 907.89432 693.845226 910.604242 694.029395 913.340474 693.634746 916.024086 692.713899 918.681388 691.372093 922.075368 689.872428 923.101455 688.188593 921.785959 687.425605 921.41762 686.715237 920.470462 686.057489 918.944487 685.399741 917.444822 683.663286 914.57704 680.821815 910.341143 678.006654 906.105246 675.454591 899.501456 673.191938 890.556083 670.955595 881.61071 668.771871 874.217622 666.693388 868.37682L650.302307 825.965228 643.803757 809.863556C641.935752 805.154081 641.067525 801.102353 641.278004 797.708373 641.278004 795.629889 641.541104 793.314616 642.119922 790.788864 642.67243 788.236802 643.146009 785.237471 643.540658 781.738251Z" p-id="3789" fill="#515151"></path></svg>