<?xml version="1.0" standalone="no"?><!DOCTYPE svg PUBLIC "-//W3C//DTD SVG 1.1//EN" "http://www.w3.org/Graphics/SVG/1.1/DTD/svg11.dtd"><svg t="1555689836372" class="icon" style="" viewBox="0 0 1024 1024" version="1.1" xmlns="http://www.w3.org/2000/svg" p-id="10164" xmlns:xlink="http://www.w3.org/1999/xlink" width="48" height="48"><defs><style type="text/css"></style></defs><path d="M576.00000001 934.40000034c-8.533333 4.266667-21.333333 4.266667-34.133333-4.266667 0 0-34.133333-25.6-149.333334-98.133333-64-38.4-123.733333-85.333333-170.666666-123.733334-42.666667-34.133333-85.333333-68.266667-128-89.6-29.866667-21.333333-46.933333-51.2-51.2-81.066666 0-38.4 21.333333-76.8 55.466666-93.866667 21.333333-12.8 42.666667-17.066667 68.266667-17.066667L25.60000001 170.66666634c-17.066667-34.133333-38.4-110.933333 29.866667-153.6 25.6-12.8 51.2-17.066667 76.8-8.533333 38.4 17.066667 59.733333 55.466667 68.266666 64l68.266667 110.933333c4.266667-12.8 17.066667-21.333333 29.866667-29.866666 34.133333-21.333333 68.266667-25.6 98.133333-12.8 8.533333 4.266667 12.8 4.266667 17.066667 8.533333 8.533333-12.8 21.333333-25.6 42.666666-34.133333 25.6-12.8 55.466667-12.8 76.8-4.266667 12.8 4.266667 21.333333 12.8 29.866667 21.333333 8.533333-12.8 25.6-25.6 46.933333-29.866666 72.533333-21.333333 123.733333 42.666667 140.8 76.8l64 106.666666c4.266667 4.266667 76.8 128 81.066667 290.133334 0 110.933333 4.266667 136.533333 4.266667 145.066666v8.533334c0 8.533333-8.533333 17.066667-17.066667 21.333333L576.00000001 934.40000034zM132.26666701 494.93333334c-17.066667 8.533333-29.866667 29.866667-29.866667 42.666667 0 8.533333 4.266667 17.066667 17.066667 25.6 42.666667 25.6 85.333333 59.733333 132.266666 93.866666 51.2 38.4 102.4 81.066667 166.4 119.466667 76.8 46.933333 119.466667 76.8 140.8 89.6l277.333334-157.866667c0-21.333333 0-59.733333-4.266667-132.266666-4.266667-145.066667-72.533333-256-72.533333-260.266667l-64-106.666667v-4.266666c0-4.266667-29.866667-55.466667-68.266667-46.933334-4.266667 0-4.266667 4.266667-8.533333 4.266667-4.266667 4.266667-17.066667 8.533333-8.533334 42.666667 8.533333 12.8 8.533333 17.066667 8.533334 17.066666 4.266667 17.066667 0 34.133333-17.066667 38.4-12.8 4.266667-29.866667 0-38.4-17.066666l-8.533333-17.066667c-12.8-29.866667-29.866667-46.933333-42.666667-55.466667-4.266667-4.266667-17.066667-4.266667-29.866667 4.266667-21.333333 8.533333-34.133333 21.333333-21.333333 51.2l17.066667 25.6c8.533333 12.8 4.266667 29.866667-4.266667 42.666667-12.8 8.533333-29.866667 8.533333-38.4-4.266667 0 0-12.8-12.8-21.333333-34.133333l-8.533334-17.066667c0-4.266667-4.266667-4.266667-4.266666-8.533333 0 0-8.533333-21.333333-25.6-29.866667-12.8-4.266667-29.866667 0-42.666667 8.533333-17.066667 8.533333-29.866667 21.333333-17.066667 55.466667l34.133334 51.2c8.533333 12.8 4.266667 29.866667-8.533334 38.4-12.8 8.533333-29.866667 8.533333-38.4-4.266667 0 0-25.6-25.6-38.4-59.733333L149.33333301 102.40000034v-4.266667c-4.266667-4.266667-17.066667-25.6-34.133333-29.866667-8.533333-4.266667-17.066667 0-25.6 4.266667-38.4 21.333333-17.066667 64-12.8 68.266667L260.26666701 469.33333334c8.533333 12.8 4.266667 29.866667-4.266667 38.4-8.533333 8.533333-25.6 8.533333-38.4 0-38.4-34.133333-72.533333-21.333333-85.333333-12.8z m0 0" fill="#707070" p-id="10165"></path></svg>