<?xml version="1.0" standalone="no"?><!DOCTYPE svg PUBLIC "-//W3C//DTD SVG 1.1//EN" "http://www.w3.org/Graphics/SVG/1.1/DTD/svg11.dtd"><svg t="1555688384230" class="icon" style="" viewBox="0 0 1024 1024" version="1.1" xmlns="http://www.w3.org/2000/svg" p-id="3399" xmlns:xlink="http://www.w3.org/1999/xlink" width="48" height="48"><defs><style type="text/css"></style></defs><path d="M965.8368 318.8736v341.6064c0 13.5168-11.0592 24.3712-24.3712 24.3712H396.288l-122.2656 87.4496-18.0224-87.4496h-148.8896c-13.5168 0-24.3712-11.0592-24.3712-24.3712V318.8736c0-13.5168 11.0592-24.3712 24.3712-24.3712h834.3552c13.312-0.2048 24.3712 10.8544 24.3712 24.3712zM137.4208 466.5344h134.3488v-16.384h-38.7072c7.5776-9.0112 15.36-18.6368 23.552-29.2864l-18.0224-10.24c-7.7824 13.1072-16.384 26.2144-25.6 39.5264h-33.792l14.336-10.4448c-8.8064-12.4928-16.1792-22.1184-21.7088-28.8768l-13.7216 9.6256c6.3488 8.192 13.1072 18.0224 20.48 29.696h-41.1648v16.384z m0 110.3872c6.3488 3.072 11.8784 6.144 16.7936 9.216 9.0112-15.5648 18.0224-32.768 27.2384-52.0192l-17.408-8.192c-9.4208 20.8896-18.432 38.0928-26.624 50.9952z m7.168-62.6688H196.608v62.464c0 8.6016-4.096 13.1072-12.0832 13.1072-5.5296 0-13.312-0.4096-23.1424-1.4336 1.2288 7.3728 2.048 13.7216 2.8672 19.456 9.216 0.2048 17.408 0.2048 24.7808 0.2048 17.408 0 26.0096-9.0112 26.0096-27.0336V514.2528h49.9712v-16.384H215.04V473.7024h-18.432v24.1664h-52.0192v16.384z m1.024-106.9056h119.3984v-16.384h-54.272l8.6016-4.096c-4.5056-8.8064-9.6256-17.6128-14.7456-26.2144l-16.384 7.5776c4.7104 8.192 8.8064 15.7696 12.4928 22.7328h-55.0912v16.384z m77.0048 129.6384c8.3968 11.6736 16.1792 23.9616 23.7568 37.0688l16.384-11.264c-7.168-10.8544-15.5648-22.7328-24.9856-35.84l-15.1552 10.0352z m57.9584-47.104c0 46.8992-11.0592 82.5344-32.9728 106.496 4.9152 5.5296 9.4208 11.0592 13.5168 16.384 24.9856-29.0816 37.4784-69.8368 37.4784-122.0608v-12.4928h37.6832v133.7344h18.8416V478.0032h36.4544V460.8h-93.184V401.408c23.552-1.4336 52.4288-4.3008 86.016-8.6016l-6.5536-19.6608c-29.696 6.5536-62.2592 10.0352-97.4848 10.4448v106.2912z m123.6992 77.6192c37.2736-10.4448 71.0656-19.2512 101.1712-26.8288-0.8192-4.7104-1.4336-11.6736-1.8432-20.48-13.312 3.6864-27.4432 7.3728-42.1888 11.0592V410.4192h42.8032v-19.8656h-102.4V410.4192h38.7072v125.7472c-13.5168 3.072-27.648 6.3488-42.3936 9.6256l6.144 21.7088z m92.9792-131.072H536.576c-0.4096 11.8784-0.8192 21.7088-1.2288 29.696-2.8672 60.416-28.2624 103.8336-75.776 130.4576 6.144 6.3488 11.0592 12.0832 14.7456 17.408 50.9952-30.3104 78.2336-79.0528 81.5104-146.2272 0.4096-7.3728 1.024-17.6128 1.2288-31.1296h60.8256c-0.6144 44.8512-2.048 87.4496-4.3008 127.3856-0.8192 15.1552-7.5776 22.9376-20.48 23.1424-14.5408 0.2048-30.72-0.8192-48.5376-2.8672 1.4336 7.5776 2.8672 15.1552 4.096 22.9376 17.8176 0.8192 34.2016 1.2288 48.9472 1.024 22.3232-0.4096 34.4064-14.1312 36.2496-40.7552 1.8432-40.7552 3.4816-91.136 5.12-150.528h-81.5104c0.4096-15.1552 0.8192-32.768 1.024-53.0432h-20.6848c-0.2048 20.0704-0.4096 37.888-0.8192 53.0432h-39.7312v19.456zM741.376 394.4448c6.144 8.6016 11.8784 16.7936 17.2032 24.9856-20.8896 1.6384-44.032 3.2768-69.632 4.9152 15.5648-18.2272 30.5152-37.4784 44.6464-57.9584l-20.0704-7.3728c-9.0112 15.1552-18.2272 28.8768-27.648 41.1648-9.0112 11.264-17.2032 18.8416-24.7808 22.9376l8.192 21.504c24.9856-2.4576 58.368-5.3248 99.9424-8.3968 3.6864 6.144 7.3728 12.0832 10.6496 18.0224 5.3248-3.4816 11.0592-7.3728 17.6128-11.6736-11.4688-18.6368-24.7808-37.888-40.3456-57.9584L741.376 394.4448z m-46.08 161.5872h63.8976v21.0944c0 8.6016-4.096 13.1072-12.4928 13.1072-6.5536 0-15.1552-0.4096-25.8048-1.2288 1.6384 7.5776 3.072 14.1312 3.8912 19.456 11.6736 0 21.2992 0 28.8768-0.2048 16.9984 0 25.6-9.216 25.6-27.648v-120.832h-103.6288V610.304h19.8656V556.032z m63.8976-55.5008h-63.8976v-24.576h63.8976v24.576z m-63.8976 15.36h63.8976V540.672h-63.8976V515.8912z m108.544 60.416c0 19.8656 9.6256 29.9008 29.0816 29.9008h42.5984c19.0464 0 29.696-7.5776 31.9488-22.528 1.4336-7.5776 3.072-19.0464 4.3008-33.9968-6.7584-2.2528-13.5168-4.5056-19.8656-7.168-0.8192 14.7456-1.8432 26.0096-3.072 33.3824-1.4336 8.3968-6.3488 12.4928-15.1552 12.4928h-37.4784c-8.3968 0-12.4928-5.3248-12.4928-16.1792V550.5024c30.3104-11.264 59.392-24.3712 87.2448-38.912l-11.4688-17.6128c-26.4192 14.5408-51.6096 26.4192-75.776 35.4304V487.2192h-19.8656v89.088z m0.6144-130.048c0 20.48 10.24 30.72 30.9248 30.72H872.448c20.48 0 31.9488-7.3728 34.4064-22.1184 1.4336-8.6016 3.072-19.6608 4.3008-33.1776-6.7584-2.4576-13.5168-4.9152-19.8656-7.3728-0.8192 13.9264-1.8432 24.576-3.072 31.9488-1.4336 8.8064-7.3728 13.312-18.0224 13.312h-32.3584c-9.0112 0-13.5168-5.7344-13.5168-17.2032V427.4176c27.648-11.0592 54.6816-23.3472 81.1008-36.864l-11.4688-17.6128c-23.1424 13.1072-46.2848 24.3712-69.632 33.5872v-43.8272h-19.8656v83.5584z" fill="#FF5E5E" p-id="3400"></path></svg>