<?xml version="1.0" standalone="no"?><!DOCTYPE svg PUBLIC "-//W3C//DTD SVG 1.1//EN" "http://www.w3.org/Graphics/SVG/1.1/DTD/svg11.dtd"><svg t="1555688893381" class="icon" style="" viewBox="0 0 1024 1024" version="1.1" xmlns="http://www.w3.org/2000/svg" p-id="4447" xmlns:xlink="http://www.w3.org/1999/xlink" width="48" height="48"><defs><style type="text/css"></style></defs><path d="M1002.393401 265.194918 21.605575 265.194918c-6.78145 0-12.279674 5.498224-12.279674 12.279674l0 463.533149c0 6.78145 5.498224 12.279674 12.279674 12.279674l330.660932 0 159.260214 155.906839 155.908886-155.906839L1002.393401 753.287415c6.78145 0 12.279674-5.498224 12.279674-12.279674L1014.673076 277.474592C1014.673076 270.693142 1009.174851 265.194918 1002.393401 265.194918zM354.978269 370.634342l211.277938 0 0 48.202838L412.511613 418.83718l0 63.169715L555.56675 482.006895l0 48.009434L412.511613 530.016329l0 77.552284 159.187559 0 0 48.009434L354.978269 655.578046 354.978269 370.634342zM294.140669 655.578046l-57.727773 0L121.541659 469.762013l0 185.816033L68.091306 655.578046 68.091306 370.634342l55.977919 0 116.621091 190.285834L240.690316 370.634342l53.451376 0L294.141692 655.578046zM897.654942 655.578046l-61.033052 0-56.755632-213.027791-56.56018 213.027791-62.393026 0L592.885703 370.634342l58.893318 0 42.956348 195.7288 52.090379-195.7288 68.417229 0 49.951669 199.033056 43.732014-199.033056 57.923224 0L897.654942 655.578046z" p-id="4448" data-spm-anchor-id="a313x.7781069.0.i2" class="selected" fill="#d81e06"></path></svg>