<?xml version="1.0" standalone="no"?><!DOCTYPE svg PUBLIC "-//W3C//DTD SVG 1.1//EN" "http://www.w3.org/Graphics/SVG/1.1/DTD/svg11.dtd"><svg t="1556956251073" class="icon" style="" viewBox="0 0 1024 1024" version="1.1" xmlns="http://www.w3.org/2000/svg" p-id="1990" xmlns:xlink="http://www.w3.org/1999/xlink" width="32" height="32"><defs><style type="text/css"></style></defs><path d="M89.9 368.2l381.2 173.6c33.7 16.1 48.2 16.1 84.7 0L937 368.2c28.1-13.2 29-69.6 0-85.7L555.9 78.6c-30-18-51-17.1-84.7 0L89.9 282.5c-29 19-29.9 69.6 0 85.7z" p-id="1991"></path><path d="M512.4 756.6c-23.5 0-43.1-7.7-60.7-16.2l-349-159c-5.3-2.4-10.1-5.1-14.5-8.3-24.1-17.1-29.8-50.6-12.7-74.7 16.5-23.4 48.6-29.4 72.6-14L497 643.3l0.4 0.2c0.1 0.1 0.2 0.1 0.3 0.2 9.4 4.5 20.2 4.7 29.7 0.6 1-0.4 2-0.8 3.1-1.3l351.2-160c26.9-12.3 58.7-0.4 71 26.6 12.3 26.9 0.4 58.7-26.6 71L574.3 740.8l-0.3 0.1c-18.4 8.2-38.7 15.7-61.6 15.7zM150.1 485.8z" p-id="1992"></path><path d="M512.4 958.5c-23.5 0-43.1-7.7-60.7-16.2l-349-159c-5.3-2.4-10.1-5.1-14.5-8.3-24.1-17.1-29.8-50.6-12.7-74.7 16.7-23.5 48.8-29.5 72.7-14.1l348.8 159 0.4 0.2c0.1 0.1 0.2 0.1 0.3 0.2 9.4 4.5 20.2 4.7 29.7 0.6 1-0.4 2-0.8 3.1-1.3L881.7 685c26.9-12.3 58.7-0.4 71 26.6 12.3 26.9 0.4 58.7-26.6 71L574.3 942.7l-0.3 0.1c-18.4 8.2-38.7 15.7-61.6 15.7zM150.1 687.6c0 0.1 0 0.1 0 0 0 0.1 0 0.1 0 0z" p-id="1993"></path></svg>